# Blender v3.2.2 OBJ File: ''
# www.blender.org
mtllib res.mtl
o Cube_Cube.001
v 0.831545 1.054134 6.244672
v 0.831545 3.054134 6.244672
v 0.831545 3.054134 4.244672
v 0.831545 1.054134 4.244672
v 2.831545 3.054134 4.244672
v 2.831545 1.054134 4.244672
v 2.831545 3.054134 6.244672
v 2.831545 1.054134 6.244672
vt 0.375000 0.000000
vt 0.625000 0.000000
vt 0.625000 0.250000
vt 0.375000 0.250000
vt 0.625000 0.500000
vt 0.375000 0.500000
vt 0.625000 0.750000
vt 0.375000 0.750000
vt 0.625000 1.000000
vt 0.375000 1.000000
vt 0.125000 0.500000
vt 0.125000 0.750000
vt 0.875000 0.500000
vt 0.875000 0.750000
vn -1.0000 0.0000 0.0000
vn 0.0000 0.0000 -1.0000
vn 1.0000 -0.0000 0.0000
vn 0.0000 -0.0000 1.0000
vn 0.0000 -1.0000 -0.0000
vn 0.0000 1.0000 0.0000
usemtl Default_OBJ.002
s 1
f 1/1/1 2/2/1 3/3/1 4/4/1
f 4/4/2 3/3/2 5/5/2 6/6/2
f 6/6/3 5/5/3 7/7/3 8/8/3
f 8/8/4 7/7/4 2/9/4 1/10/4
f 4/11/5 6/6/5 8/8/5 1/12/5
f 5/5/6 3/13/6 2/14/6 7/7/6
o Cube.001_Cube.002
v 1.660873 2.101523 5.305971
v 1.660873 4.101523 5.305971
v 1.660873 4.101523 3.305971
v 1.660873 2.101524 3.305970
v 3.660873 4.101523 3.305971
v 3.660873 2.101524 3.305970
v 3.660873 4.101523 5.305971
v 3.660873 2.101523 5.305971
vt 0.375000 0.000000
vt 0.625000 0.000000
vt 0.625000 0.250000
vt 0.375000 0.250000
vt 0.625000 0.500000
vt 0.375000 0.500000
vt 0.625000 0.750000
vt 0.375000 0.750000
vt 0.625000 1.000000
vt 0.375000 1.000000
vt 0.125000 0.500000
vt 0.125000 0.750000
vt 0.875000 0.500000
vt 0.875000 0.750000
vn -1.0000 0.0000 0.0000
vn 0.0000 0.0000 -1.0000
vn 1.0000 0.0000 0.0000
vn 0.0000 0.0000 1.0000
vn 0.0000 -1.0000 -0.0000
vn 0.0000 1.0000 0.0000
usemtl Material.002
s 1
f 9/15/7 10/16/7 11/17/7 12/18/7
f 12/18/8 11/17/8 13/19/8 14/20/8
f 14/20/9 13/19/9 15/21/9 16/22/9
f 16/22/10 15/21/10 10/23/10 9/24/10
f 12/25/11 14/20/11 16/22/11 9/26/11
f 13/19/12 11/27/12 10/28/12 15/21/12
o PartitionPlane
v 0.431122 2.577826 6.979702
v 4.625854 2.577827 2.784969
v 0.431122 2.577827 2.784969
v 0.431122 2.577826 6.979702
v 4.625854 2.577826 6.979702
v 4.625854 2.577827 2.784969
vt 0.375000 0.000000
vt 0.375000 0.000000
vt 0.375000 0.000000
vt 0.375000 0.000000
vt 0.375000 0.000000
vt 0.375000 0.000000
vn 0.0000 1.0000 0.0000
usemtl Default_OBJ.003
s 1
f 17/29/13 18/30/13 19/31/13
f 20/32/13 21/33/13 22/34/13
