# Blender v3.2.2 OBJ File: ''
# www.blender.org
mtllib subtree2.mtl
o bunnyA.001
v 0.831545 3.054134 6.244672
v 0.831545 3.054134 4.244672
v 0.831545 1.054134 4.244672
v 0.831545 1.054134 6.244672
v 2.831545 3.054134 4.244672
v 2.831545 1.054134 4.244672
v 2.831545 3.054134 6.244672
v 2.831545 1.054134 6.244672
vn -1.0000 0.0000 0.0000
vn 0.0000 0.0000 -1.0000
vn 1.0000 -0.0000 0.0000
vn 0.0000 -0.0000 1.0000
vn 0.0000 1.0000 0.0000
usemtl Default_OBJ
s off
f 1//1 2//1 3//1
f 1//1 3//1 4//1
f 2//2 5//2 6//2
f 2//2 6//2 3//2
f 5//3 7//3 8//3
f 5//3 8//3 6//3
f 7//4 1//4 4//4
f 7//4 4//4 8//4
f 2//5 1//5 7//5
f 2//5 7//5 5//5
o bunnyB.001
v 1.660873 2.101523 5.305971
v 1.660873 4.101523 5.305971
v 1.660873 4.101523 3.305971
v 1.660873 2.101524 3.305970
v 3.660873 4.101523 3.305971
v 3.660873 2.101524 3.305970
v 3.660873 4.101523 5.305971
v 3.660873 2.101523 5.305971
v 1.693426 4.590659 5.252434
v 1.693426 4.590660 3.252434
v 3.693426 4.590660 3.252434
v 3.693426 4.590659 5.252434
vn -1.0000 0.0000 0.0000
vn 0.0000 0.0000 -1.0000
vn 1.0000 0.0000 0.0000
vn 0.0000 0.0000 1.0000
vn 0.0000 -1.0000 -0.0000
vn 0.0000 1.0000 0.0000
usemtl Default_OBJ.001
s off
f 9//6 10//6 11//6
f 9//6 11//6 12//6
f 12//7 11//7 13//7
f 12//7 13//7 14//7
f 14//8 13//8 15//8
f 14//8 15//8 16//8
f 16//9 15//9 10//9
f 16//9 10//9 9//9
f 12//10 14//10 16//10
f 12//10 16//10 9//10
f 19//11 18//11 17//11
f 19//11 17//11 20//11
