# Blender v3.2.2 OBJ File: ''
# www.blender.org
mtllib totalTree.mtl
o bunnyA.001
v 0.831545 3.054134 6.244672
v 0.831545 3.054134 4.244672
v 0.831545 1.054134 4.244672
v 0.831545 1.054134 6.244672
v 2.831545 3.054134 4.244672
v 2.831545 1.054134 4.244672
v 2.831545 3.054134 6.244672
v 2.831545 1.054134 6.244672
v 0.863524 0.546117 4.326852
v 0.863524 0.546116 6.326852
v 2.863524 0.546117 4.326852
v 2.863524 0.546116 6.326852
vn -1.0000 0.0000 0.0000
vn 0.0000 0.0000 -1.0000
vn 1.0000 -0.0000 0.0000
vn 0.0000 -0.0000 1.0000
vn 0.0000 1.0000 0.0000
vn 0.0000 -1.0000 -0.0000
usemtl Default_OBJ
s off
f 1//1 2//1 3//1
f 1//1 3//1 4//1
f 2//2 5//2 6//2
f 2//2 6//2 3//2
f 5//3 7//3 8//3
f 5//3 8//3 6//3
f 7//4 1//4 4//4
f 7//4 4//4 8//4
f 2//5 1//5 7//5
f 2//5 7//5 5//5
f 11//6 12//6 10//6
f 11//6 10//6 9//6
o bunnyB.001
v 1.660873 2.101523 5.305971
v 1.660873 4.101523 5.305971
v 1.660873 4.101523 3.305971
v 1.660873 2.101524 3.305970
v 3.660873 4.101523 3.305971
v 3.660873 2.101524 3.305970
v 3.660873 4.101523 5.305971
v 3.660873 2.101523 5.305971
v 1.693426 4.590659 5.252434
v 1.693426 4.590660 3.252434
v 3.693426 4.590660 3.252434
v 3.693426 4.590659 5.252434
vn -1.0000 0.0000 0.0000
vn 0.0000 0.0000 -1.0000
vn 1.0000 0.0000 0.0000
vn 0.0000 0.0000 1.0000
vn 0.0000 -1.0000 -0.0000
vn 0.0000 1.0000 0.0000
usemtl Default_OBJ.001
s off
f 13//7 14//7 15//7
f 13//7 15//7 16//7
f 16//8 15//8 17//8
f 16//8 17//8 18//8
f 18//9 17//9 19//9
f 18//9 19//9 20//9
f 20//10 19//10 14//10
f 20//10 14//10 13//10
f 16//11 18//11 20//11
f 16//11 20//11 13//11
f 23//12 22//12 21//12
f 23//12 21//12 24//12
