# Blender v3.2.2 OBJ File: ''
# www.blender.org
mtllib cubicB.mtl
o cubicB
v 2.095850 1.032529 0.451851
v 2.995850 1.032529 0.451851
v 2.995850 1.932529 0.451851
v 2.095850 1.932529 0.451851
v 2.095850 1.932530 -0.448149
v 2.995850 1.932530 -0.448149
v 2.995850 1.032530 -0.448149
v 2.095850 1.032530 -0.448149
vn 0.0000 -0.0000 1.0000
vn 0.0000 0.0000 -1.0000
vn 0.0000 -1.0000 -0.0000
vn 1.0000 0.0000 0.0000
vn 0.0000 1.0000 0.0000
vn -1.0000 -0.0000 0.0000
usemtl Default_OBJ.010
s off
f 1//1 2//1 3//1
f 1//1 3//1 4//1
f 5//2 6//2 7//2
f 5//2 7//2 8//2
f 2//3 1//3 8//3
f 2//3 8//3 7//3
f 3//4 2//4 7//4
f 3//4 7//4 6//4
f 4//5 3//5 6//5
f 4//5 6//5 5//5
f 1//6 4//6 5//6
f 1//6 5//6 8//6
